<svg width="384" height="253" viewBox="0 0 384 253" fill="none" xmlns="http://www.w3.org/2000/svg">
<path d="M0.00509955 59.5268C75.1788 59.5956 114.937 68.5883 164.955 89.6685C175.043 83.5562 178.751 79.5811 189.191 75.4202C119.532 58.2518 76.3586 50.9512 0.00509955 59.5268Z" fill="#00A0FB"/>
<path d="M219.552 157.734C206.383 144.34 199.325 136.735 190.694 122.002L166.439 123.197C168.938 139.094 174.771 147.125 182.792 160.69C201.422 187.686 197.414 202.94 170.043 206.326C139.342 205.862 129.825 191.141 153.287 162.143C135.297 181.058 130.011 189.886 131.732 201.502C140.196 229.132 166.328 247.802 198.031 248.465C239.403 247.152 257.428 199.464 219.552 157.734Z" fill="#0060A5"/>
<path d="M232.537 177.163C149.803 96.783 186.745 74.2315 383.461 53.4665C131.205 61.7562 146.211 103.267 192.958 177.871L232.537 177.163Z" fill="#0060A5"/>
<path d="M207.599 30.3448C222.156 53.1635 214.215 63.0907 192.733 64C168.224 62.3857 163.966 50.8633 177.868 30.3448C185.213 18.5082 188.43 11.8737 192.733 0C197.06 11.8413 200.585 18.5466 207.599 30.3448Z" fill="#00A0FB"/>
</svg>
